<mxfile host="app.diagrams.net" modified="2022-12-05T09:57:39.065Z" agent="5.0 (Windows NT 10.0; Win64; x64) AppleWebKit/537.36 (KHTML, like Gecko) Chrome/107.0.0.0 Safari/537.36" version="20.6.0" etag="OrIZI5JbdHR_BgH2de4a" type="github">
  <diagram id="hE1goupIJz7Yk2ztpyC8" name="第 1 页">
    <mxGraphModel dx="460" dy="745" grid="1" gridSize="10" guides="1" tooltips="1" connect="1" arrows="1" fold="1" page="1" pageScale="1" pageWidth="1200" pageHeight="1600" math="0" shadow="0">
      <root>
        <mxCell id="0" />
        <mxCell id="1" parent="0" />
        <mxCell id="7B-rmihDAklE7OAa2uTm-3" value="" style="edgeStyle=orthogonalEdgeStyle;rounded=0;orthogonalLoop=1;jettySize=auto;html=1;" edge="1" parent="1" source="7B-rmihDAklE7OAa2uTm-1" target="7B-rmihDAklE7OAa2uTm-2">
          <mxGeometry relative="1" as="geometry" />
        </mxCell>
        <mxCell id="7B-rmihDAklE7OAa2uTm-1" value="开始" style="strokeWidth=2;html=1;shape=mxgraph.flowchart.start_1;whiteSpace=wrap;" vertex="1" parent="1">
          <mxGeometry x="200" y="310" width="100" height="60" as="geometry" />
        </mxCell>
        <mxCell id="7B-rmihDAklE7OAa2uTm-5" value="" style="edgeStyle=orthogonalEdgeStyle;rounded=0;orthogonalLoop=1;jettySize=auto;html=1;" edge="1" parent="1" source="7B-rmihDAklE7OAa2uTm-2" target="7B-rmihDAklE7OAa2uTm-4">
          <mxGeometry relative="1" as="geometry" />
        </mxCell>
        <mxCell id="7B-rmihDAklE7OAa2uTm-2" value="定义LED_Display函数&lt;br&gt;之前已介绍，不再赘述" style="whiteSpace=wrap;html=1;strokeWidth=2;" vertex="1" parent="1">
          <mxGeometry x="180" y="400" width="140" height="60" as="geometry" />
        </mxCell>
        <mxCell id="7B-rmihDAklE7OAa2uTm-7" value="" style="edgeStyle=orthogonalEdgeStyle;rounded=0;orthogonalLoop=1;jettySize=auto;html=1;" edge="1" parent="1" source="7B-rmihDAklE7OAa2uTm-4" target="7B-rmihDAklE7OAa2uTm-6">
          <mxGeometry relative="1" as="geometry" />
        </mxCell>
        <mxCell id="7B-rmihDAklE7OAa2uTm-4" value="定义全局变量first_number=0&lt;br&gt;标志显示轮换顺序" style="whiteSpace=wrap;html=1;strokeWidth=2;" vertex="1" parent="1">
          <mxGeometry x="190" y="490" width="120" height="60" as="geometry" />
        </mxCell>
        <mxCell id="7B-rmihDAklE7OAa2uTm-9" value="" style="edgeStyle=orthogonalEdgeStyle;rounded=0;orthogonalLoop=1;jettySize=auto;html=1;" edge="1" parent="1" source="7B-rmihDAklE7OAa2uTm-6" target="7B-rmihDAklE7OAa2uTm-8">
          <mxGeometry relative="1" as="geometry" />
        </mxCell>
        <mxCell id="7B-rmihDAklE7OAa2uTm-6" value="定义数组 numbers[]={3,2,1,0}&lt;br&gt;标志需要显示的内容" style="whiteSpace=wrap;html=1;strokeWidth=2;" vertex="1" parent="1">
          <mxGeometry x="190" y="580" width="120" height="60" as="geometry" />
        </mxCell>
        <mxCell id="7B-rmihDAklE7OAa2uTm-13" value="" style="edgeStyle=orthogonalEdgeStyle;rounded=0;orthogonalLoop=1;jettySize=auto;html=1;" edge="1" parent="1" source="7B-rmihDAklE7OAa2uTm-8" target="7B-rmihDAklE7OAa2uTm-12">
          <mxGeometry relative="1" as="geometry" />
        </mxCell>
        <mxCell id="7B-rmihDAklE7OAa2uTm-8" value="定义全局变量count，用于计时" style="whiteSpace=wrap;html=1;strokeWidth=2;" vertex="1" parent="1">
          <mxGeometry x="190" y="670" width="120" height="60" as="geometry" />
        </mxCell>
        <mxCell id="7B-rmihDAklE7OAa2uTm-15" value="" style="edgeStyle=orthogonalEdgeStyle;rounded=0;orthogonalLoop=1;jettySize=auto;html=1;" edge="1" parent="1" source="7B-rmihDAklE7OAa2uTm-12" target="7B-rmihDAklE7OAa2uTm-14">
          <mxGeometry relative="1" as="geometry" />
        </mxCell>
        <mxCell id="7B-rmihDAklE7OAa2uTm-12" value="进入main函数" style="whiteSpace=wrap;html=1;strokeWidth=2;" vertex="1" parent="1">
          <mxGeometry x="190" y="760" width="120" height="50" as="geometry" />
        </mxCell>
        <mxCell id="7B-rmihDAklE7OAa2uTm-14" value="T2CON = 0b00000100&lt;br&gt;" style="whiteSpace=wrap;html=1;strokeWidth=2;" vertex="1" parent="1">
          <mxGeometry x="190" y="840" width="120" height="60" as="geometry" />
        </mxCell>
      </root>
    </mxGraphModel>
  </diagram>
</mxfile>
